<svg xmlns="http://www.w3.org/2000/svg" xmlns:xlink="http://www.w3.org/1999/xlink" xmlns:inkscape="http://www.inkscape.org/namespaces/inkscape" version="1.1" width="260.787" height="161.575" viewBox="0 0 260.787 161.575">
<defs>
<clipPath id="clip_1">
<path transform="matrix(1,0,0,-1,0,161.575)" d="M0 161.575H260.787V0H0Z"/>
</clipPath>
<clipPath id="clip_2">
<path transform="matrix(1,0,0,-1,0,161.575)" d="M80.739 91.993C78.109 84.972 80.533 76.453 86.517 71.954 77.71 79.403 78.42 93.611 88.005 100.035 93.938 104.098 102.356 103.973 108.101 99.609 117.434 92.91 117.523 78.508 108.45 71.506 118.23 78.295 118.264 93.362 108.645 100.339 105.46 102.817 101.695 103.965 97.952 103.964 90.581 103.964 83.301 99.511 80.739 91.993"/>
</clipPath>
<clipPath id="clip_3">
<path transform="matrix(1,0,0,-1,0,161.575)" d="M88.639 77.285C79.33 88.387 92.541 103.57 104.719 95.639 110.876 91.535 111.798 82.073 106.456 76.828 112.233 81.952 111.479 91.853 105.084 96.16 102.626 97.813 100.109 98.53 97.726 98.53 87.908 98.529 80.369 86.352 88.639 77.285"/>
</clipPath>
<clipPath id="clip_4">
<path transform="matrix(1,0,0,-1,0,161.575)" d="M90.705 82.463C88.395 87.469 92.585 93.695 98.085 93.269 103.595 93.237 107.264 86.678 104.539 81.886 107.659 86.769 103.879 93.614 98.103 93.705 97.938 93.716 97.775 93.722 97.613 93.722 92.094 93.721 88.084 87.449 90.705 82.463"/>
</clipPath>
<clipPath id="clip_5">
<path transform="matrix(1,0,0,-1,0,161.575)" d="M0 161.575H260.787V0H0Z"/>
</clipPath>
</defs>
<g inkscape:groupmode="layer" inkscape:label="Layer 1">
<g clip-path="url(#clip_1)">
<path transform="matrix(1,0,0,-1,89.0234,94.8816)" d="M0 0H-4.511L3.713 20.819C4.581 23.005 6.176 23.838 8.64 23.838 11.069 23.838 12.665 23.005 13.498 20.819L21.409 0H16.864L9.75 18.841C9.542 19.396 9.161 19.639 8.605 19.639 8.05 19.639 7.668 19.396 7.426 18.841Z" fill="#16acde"/>
</g>



<g clip-path="url(#clip_5)">
<path transform="matrix(1,0,0,-1,142.957,103.4559)" d="M0 0C-.495-.488-1.136-.716-1.83-.716-3.619-.716-4.377 .517-4.384 1.769-4.391 3.028-3.571 4.308-1.83 4.308-1.177 4.308-.558 4.061-.062 3.571L-.667 2.986C-.983 3.297-1.41 3.441-1.83 3.441-2.993 3.441-3.496 2.574-3.489 1.769-3.482 .971-3.021 .138-1.83 .138-1.41 .138-.936 .31-.619 .626Z"/>
<path transform="matrix(1,0,0,-1,147.5947,101.701)" d="M0 0C.021-.791 .447-1.638 1.583-1.638 2.718-1.638 3.145-.784 3.158 .007 3.173 .819 2.718 1.728 1.583 1.728 .447 1.728-.021 .812 0 0M4.054 .021C4.039-1.225 3.275-2.471 1.583-2.471-.11-2.471-.895-1.252-.895 .014-.895 1.28-.083 2.553 1.583 2.553 3.241 2.553 4.067 1.28 4.054 .021"/>
<path transform="matrix(1,0,0,-1,158.9287,99.2371)" d="M0 0H.908V-4.824H.344V-4.831L-2.188-1.576V-4.824H-3.097V-.007H-2.36L0-2.994Z"/>
<path transform="matrix(1,0,0,-1,165.3623,100.0701)" d="M0 0H-1.528V.826H2.436V0H.908V-3.991H0Z"/>
<path transform="matrix(1,0,0,-1,172.7119,100.09059)" d="M0 0V-1.541H1.383C1.961-1.541 2.209-1.156 2.209-.771 2.209-.386 1.954 0 1.383 0ZM3.357-3.971H2.277L.873-2.36H0V-3.971H-.909V.854C-.145 .854 .619 .847 1.383 .847 2.519 .84 3.117 .083 3.117-.75 3.117-1.411 2.814-2.078 1.898-2.264L3.357-3.909Z"/>
<path transform="matrix(1,0,0,-1,180.5693,101.701)" d="M0 0C.021-.791 .447-1.638 1.583-1.638 2.718-1.638 3.145-.784 3.158 .007 3.173 .819 2.718 1.728 1.583 1.728 .447 1.728-.021 .812 0 0M4.054 .021C4.039-1.225 3.275-2.471 1.583-2.471-.11-2.471-.895-1.252-.895 .014-.895 1.28-.083 2.553 1.583 2.553 3.241 2.553 4.067 1.28 4.054 .021"/>
<path transform="matrix(1,0,0,-1,189.6455,99.2439)" d="M0 0V-3.978H2.478V-4.817H-.908V0Z"/>
<path transform="matrix(1,0,0,-1,199.1846,100.407)" d="M0 0C-.166 .275-.62 .537-1.143 .537-1.817 .537-2.141 .255-2.141-.104-2.141-.523-1.646-.64-1.067-.709-.062-.833 .874-1.095 .874-2.243 .874-3.317-.076-3.778-1.149-3.778-2.134-3.778-2.891-3.476-3.249-2.595L-2.491-2.202C-2.278-2.732-1.721-2.966-1.136-2.966-.564-2.966-.028-2.767-.028-2.243-.028-1.789-.503-1.604-1.143-1.535-2.127-1.418-3.035-1.156-3.035-.076-3.035 .915-2.058 1.321-1.17 1.328-.42 1.328 .357 1.114 .722 .371Z"/>
<path transform="matrix(1,0,0,-1,66.5752,90.44019)" d="M0 0C0-.277 .174-.382 .451-.382H8.432C10.896-.382 12.041 .764 12.041 2.672 12.041 4.649 10.826 5.69 8.432 5.69H0ZM0 9.091H8.328C10.757 9.091 11.937 9.993 11.937 11.901 11.937 13.741 10.861 14.955 8.362 14.955H.451C.174 14.955 0 14.816 0 14.539ZM8.224 18.98C13.741 18.98 16.065 16.378 16.065 12.561 16.065 9.854 14.886 8.224 12.7 7.356 14.92 6.454 16.17 4.719 16.17 2.013 16.17-1.735 13.845-4.441 8.328-4.441H-2.082C-3.4-4.441-4.025-3.816-4.025-2.533V17.072C-4.025 18.355-3.4 18.98-2.082 18.98Z" fill="#ffffff"/>
<path transform="matrix(1,0,0,-1,131.9775,71.4603)" d="M0 0V-4.094H-12.005C-14.122-4.094-15.059-5.239-15.059-6.87-15.059-8.293-14.33-9.646-11.589-9.646H-6.106C.278-9.646 1.77-13.185 1.77-16.551 1.77-20.506-.347-23.421-5.69-23.421H-18.737V-19.327H-5.551C-3.331-19.327-2.324-18.113-2.324-16.413-2.324-14.885-3.123-13.498-6.002-13.498H-11.45C-17.696-13.498-19.153-9.993-19.153-6.731-19.153-2.845-17.071 0-11.867 0Z" fill="#ffffff"/>
<path transform="matrix(1,0,0,-1,0,161.575)" d="M142.386 66.693H138.292V90.114H142.386Z" fill="#ffffff"/>
<path transform="matrix(1,0,0,-1,157.7559,75.5545)" d="M0 0C-4.511 0-6.488-2.29-6.488-7.668-6.488-13.012-4.545-15.232 0-15.232H3.192C7.703-15.232 9.646-13.012 9.646-7.634 9.646-2.29 7.703 0 3.192 0ZM3.192 4.094C9.993 4.094 13.775 .208 13.775-7.668 13.775-15.511 10.028-19.327 3.192-19.327H0C-6.835-19.327-10.583-15.511-10.583-7.668-10.583 .208-6.801 4.094 0 4.094Z" fill="#ffffff"/>
<path transform="matrix(1,0,0,-1,178.4336,71.4603)" d="M0 0 7.183-8.64 14.713 0H19.778L9.751-11.52 19.848-23.421H14.852L7.079-14.123-.901-23.421H-5.968L4.512-11.208-4.996 0Z" fill="#ffffff"/>

  <g>
    <path d="M 65.5 89.3 A 32 32 0 0 0 129.5 89.3" fill="none" stroke="#16acde" stroke-width="4" stroke-linecap="round" opacity="0.25"/>
    <path d="M 72.5 89.3 A 25 25 0 0 0 122.5 89.3" fill="none" stroke="#16acde" stroke-width="4" stroke-linecap="round" opacity="0.45"/>
    <path d="M 79.5 89.3 A 18 18 0 0 0 115.5 89.3" fill="none" stroke="#16acde" stroke-width="4.5" stroke-linecap="round" opacity="0.7"/>
    <path d="M 86.5 89.3 A 11 11 0 0 0 108.5 89.3" fill="none" stroke="#16acde" stroke-width="5" stroke-linecap="round" opacity="1"/>
  </g>
</g>
</g>
</svg>
